<svg id="svg" xmlns="http://www.w3.org/2000/svg" xmlns:xlink="http://www.w3.org/1999/xlink" width="400" height="400" viewBox="0, 0, 400,400"><g id="svgg"><path id="path0" d="M187.000 13.989 C 186.560 14.184,184.625 14.356,182.700 14.372 C 180.775 14.387,179.200 14.557,179.200 14.749 C 179.200 14.940,177.220 15.225,174.800 15.382 C 172.380 15.539,170.400 15.832,170.400 16.034 C 170.400 16.235,169.331 16.400,168.024 16.400 C 166.717 16.400,165.551 16.556,165.432 16.747 C 165.314 16.939,163.958 17.219,162.418 17.371 C 160.878 17.522,159.514 17.816,159.386 18.023 C 159.258 18.230,158.711 18.400,158.171 18.400 C 157.631 18.400,156.877 18.571,156.495 18.780 C 156.113 18.990,154.765 19.273,153.500 19.409 C 152.235 19.546,151.200 19.825,151.200 20.029 C 151.200 20.233,150.750 20.400,150.200 20.400 C 149.650 20.400,149.200 20.557,149.200 20.748 C 149.200 20.940,148.100 21.221,146.755 21.373 C 145.410 21.526,144.015 21.804,143.655 21.991 C 141.917 22.898,140.000 23.600,139.263 23.600 C 138.814 23.600,138.336 23.780,138.200 24.000 C 138.064 24.220,137.524 24.400,137.000 24.400 C 136.476 24.400,135.948 24.560,135.827 24.756 C 135.706 24.951,135.123 25.233,134.531 25.382 C 133.938 25.530,132.739 25.997,131.865 26.419 C 130.992 26.841,129.675 27.300,128.939 27.438 C 128.202 27.576,127.600 27.849,127.600 28.045 C 127.600 28.240,127.251 28.400,126.824 28.400 C 126.397 28.400,125.945 28.566,125.819 28.769 C 125.694 28.972,125.053 29.257,124.395 29.401 C 123.738 29.545,123.200 29.829,123.200 30.032 C 123.200 30.234,122.840 30.400,122.400 30.400 C 121.960 30.400,121.600 30.580,121.600 30.800 C 121.600 31.020,121.331 31.200,121.003 31.200 C 120.169 31.200,117.200 32.523,117.200 32.894 C 117.200 33.062,117.002 33.200,116.760 33.200 C 116.273 33.200,113.515 34.428,113.200 34.785 C 113.090 34.910,112.237 35.369,111.305 35.806 C 110.372 36.243,109.607 36.721,109.605 36.868 C 109.602 37.016,109.060 37.255,108.400 37.400 C 107.740 37.545,107.200 37.808,107.200 37.984 C 107.200 38.160,106.165 38.821,104.900 39.451 C 103.635 40.082,102.362 40.823,102.071 41.099 C 101.781 41.374,101.286 41.600,100.971 41.600 C 100.657 41.600,100.400 41.752,100.400 41.937 C 100.400 42.122,99.770 42.613,99.000 43.028 C 98.230 43.443,97.600 43.921,97.600 44.091 C 97.600 44.261,97.330 44.400,97.000 44.400 C 96.670 44.400,96.400 44.580,96.400 44.800 C 96.400 45.020,96.138 45.200,95.818 45.200 C 95.498 45.200,94.808 45.628,94.284 46.152 C 93.761 46.676,92.942 47.228,92.466 47.379 C 91.990 47.530,91.600 47.822,91.600 48.027 C 91.600 48.232,91.330 48.400,91.000 48.400 C 90.670 48.400,90.400 48.568,90.400 48.773 C 90.400 48.978,90.081 49.247,89.691 49.371 C 89.302 49.495,88.435 50.092,87.765 50.698 C 87.095 51.304,86.044 52.160,85.429 52.600 C 84.814 53.040,84.074 53.625,83.784 53.900 C 83.494 54.175,83.131 54.400,82.976 54.400 C 82.821 54.400,82.126 55.002,81.432 55.738 C 80.738 56.474,79.954 57.149,79.690 57.238 C 79.124 57.429,75.952 60.220,71.552 64.400 C 67.725 68.035,67.528 68.226,66.911 68.881 C 66.642 69.166,66.231 69.580,65.996 69.800 C 63.901 71.768,56.730 79.739,55.697 81.247 C 55.338 81.771,54.745 82.470,54.380 82.800 C 54.014 83.130,53.589 83.796,53.437 84.280 C 53.284 84.763,52.817 85.267,52.400 85.400 C 51.983 85.533,51.540 85.960,51.416 86.350 C 51.292 86.740,50.876 87.406,50.492 87.829 C 50.108 88.253,49.452 89.140,49.034 89.800 C 48.616 90.460,48.032 91.144,47.737 91.320 C 47.442 91.496,47.200 91.830,47.200 92.062 C 47.200 92.428,46.824 92.964,44.834 95.440 C 43.959 96.528,40.400 102.433,40.400 102.796 C 40.400 103.018,40.223 103.200,40.008 103.200 C 39.792 103.200,39.502 103.650,39.364 104.200 C 39.226 104.750,38.953 105.200,38.757 105.200 C 38.560 105.200,38.400 105.470,38.400 105.800 C 38.400 106.130,38.220 106.400,38.000 106.400 C 37.780 106.400,37.600 106.657,37.600 106.971 C 37.600 107.286,37.368 107.781,37.085 108.071 C 36.570 108.600,35.200 111.293,35.200 111.777 C 35.200 111.918,34.855 112.404,34.433 112.856 C 34.012 113.309,33.548 114.154,33.402 114.736 C 33.256 115.317,33.016 115.884,32.868 115.996 C 32.361 116.382,31.200 118.724,31.200 119.362 C 31.200 119.713,31.020 120.000,30.800 120.000 C 30.580 120.000,30.400 120.360,30.400 120.800 C 30.400 121.240,30.240 121.600,30.045 121.600 C 29.849 121.600,29.571 122.230,29.426 123.000 C 29.282 123.770,29.037 124.401,28.882 124.403 C 28.563 124.407,27.601 126.338,27.598 126.980 C 27.597 127.211,27.147 128.286,26.598 129.368 C 26.049 130.450,25.600 131.503,25.600 131.707 C 25.600 132.078,24.656 134.384,23.974 135.683 C 23.777 136.058,23.499 137.093,23.356 137.983 C 23.214 138.872,22.941 139.600,22.749 139.600 C 22.557 139.600,22.400 140.050,22.400 140.600 C 22.400 141.150,22.231 141.600,22.025 141.600 C 21.818 141.600,21.527 142.412,21.378 143.405 C 21.229 144.398,20.948 145.308,20.754 145.429 C 20.559 145.549,20.400 146.166,20.400 146.800 C 20.400 147.434,20.225 148.061,20.012 148.193 C 19.798 148.325,19.505 149.325,19.360 150.416 C 19.215 151.507,18.940 152.400,18.748 152.400 C 18.557 152.400,18.400 153.019,18.400 153.776 C 18.400 154.533,18.238 155.253,18.039 155.376 C 17.841 155.498,17.553 156.679,17.400 158.000 C 17.247 159.321,16.959 160.502,16.761 160.624 C 16.562 160.747,16.400 161.456,16.400 162.200 C 16.400 162.944,16.244 163.649,16.052 163.768 C 15.861 163.886,15.578 165.604,15.423 167.586 C 15.268 169.568,14.974 171.292,14.770 171.418 C 14.567 171.544,14.400 172.591,14.400 173.744 C 14.400 174.897,14.210 176.030,13.977 176.263 C 13.729 176.511,13.454 179.708,13.314 183.958 C 13.183 187.958,12.923 191.324,12.738 191.439 C 12.296 191.712,12.296 210.800,12.738 210.800 C 12.924 210.800,13.184 214.066,13.315 218.057 C 13.454 222.297,13.729 225.489,13.977 225.737 C 14.210 225.970,14.400 227.114,14.400 228.280 C 14.400 229.446,14.563 230.400,14.763 230.400 C 14.962 230.400,15.254 232.113,15.411 234.206 C 15.568 236.299,15.854 238.110,16.048 238.230 C 16.242 238.349,16.400 239.056,16.400 239.800 C 16.400 240.544,16.572 241.259,16.782 241.389 C 16.991 241.518,17.285 242.703,17.434 244.021 C 17.583 245.339,17.862 246.514,18.053 246.633 C 18.244 246.751,18.400 247.467,18.400 248.224 C 18.400 248.981,18.563 249.600,18.762 249.600 C 18.962 249.600,19.249 250.500,19.400 251.600 C 19.551 252.699,19.838 253.700,20.037 253.823 C 20.237 253.946,20.400 254.577,20.400 255.224 C 20.400 255.871,20.557 256.400,20.748 256.400 C 20.940 256.400,21.216 257.300,21.362 258.400 C 21.508 259.500,21.801 260.400,22.014 260.400 C 22.226 260.400,22.400 260.850,22.400 261.400 C 22.400 261.950,22.557 262.400,22.749 262.400 C 22.941 262.400,23.213 263.118,23.353 263.995 C 23.493 264.872,23.936 266.177,24.338 266.895 C 24.739 267.613,25.198 268.740,25.356 269.400 C 25.761 271.084,26.539 272.800,26.898 272.800 C 27.064 272.800,27.201 273.115,27.202 273.500 C 27.204 273.885,27.474 274.716,27.802 275.346 C 28.131 275.976,28.400 276.741,28.400 277.046 C 28.400 277.351,28.572 277.600,28.782 277.600 C 28.992 277.600,29.282 278.230,29.426 279.000 C 29.571 279.770,29.805 280.400,29.947 280.400 C 30.089 280.400,30.439 280.985,30.725 281.700 C 31.617 283.929,32.514 285.600,32.818 285.600 C 32.979 285.600,33.223 286.198,33.360 286.930 C 33.498 287.661,33.968 288.644,34.405 289.113 C 34.842 289.583,35.200 290.082,35.200 290.223 C 35.200 290.707,36.570 293.400,37.085 293.929 C 37.368 294.219,37.600 294.714,37.600 295.029 C 37.600 295.343,37.780 295.600,38.000 295.600 C 38.220 295.600,38.400 295.870,38.400 296.200 C 38.400 296.530,38.580 296.800,38.800 296.800 C 39.020 296.800,39.200 297.042,39.200 297.339 C 39.200 297.635,39.583 298.310,40.051 298.839 C 40.519 299.367,41.154 300.393,41.463 301.117 C 41.772 301.842,42.290 302.536,42.613 302.660 C 42.936 302.784,43.200 303.143,43.200 303.457 C 43.200 304.153,44.390 306.080,45.090 306.520 C 45.371 306.696,45.600 307.099,45.600 307.416 C 45.600 307.734,45.960 308.218,46.400 308.493 C 46.840 308.768,47.200 309.211,47.200 309.478 C 47.200 309.745,47.650 310.414,48.200 310.964 C 48.750 311.514,49.200 312.144,49.200 312.364 C 49.200 312.584,49.628 313.192,50.152 313.716 C 50.676 314.239,51.225 315.048,51.373 315.513 C 51.520 315.979,51.983 316.467,52.400 316.600 C 52.817 316.733,53.283 317.230,53.434 317.707 C 53.585 318.183,54.314 319.160,55.054 319.879 C 55.794 320.598,56.400 321.333,56.400 321.512 C 56.400 321.692,57.384 322.910,58.587 324.219 C 59.790 325.529,61.815 327.740,63.087 329.134 C 64.359 330.528,65.634 331.878,65.919 332.134 C 66.205 332.390,66.655 332.834,66.919 333.119 C 69.172 335.552,78.441 343.963,79.534 344.568 C 79.900 344.771,80.566 345.356,81.013 345.868 C 81.460 346.381,82.123 346.800,82.486 346.800 C 82.849 346.800,83.257 347.151,83.394 347.580 C 83.530 348.008,83.992 348.470,84.420 348.606 C 84.849 348.743,85.200 349.022,85.200 349.227 C 85.200 349.432,85.404 349.600,85.654 349.600 C 85.904 349.600,86.525 350.050,87.035 350.600 C 87.545 351.150,88.072 351.600,88.208 351.600 C 88.472 351.600,91.059 353.477,91.929 354.300 C 92.219 354.575,92.632 354.800,92.847 354.800 C 93.061 354.800,93.686 355.250,94.236 355.800 C 94.786 356.350,95.498 356.800,95.818 356.800 C 96.138 356.800,96.400 356.980,96.400 357.200 C 96.400 357.420,96.670 357.600,97.000 357.600 C 97.330 357.600,97.600 357.768,97.600 357.973 C 97.600 358.178,98.005 358.472,98.500 358.627 C 98.995 358.781,99.490 359.034,99.600 359.188 C 99.955 359.687,104.235 362.294,105.201 362.600 C 105.717 362.764,106.509 363.243,106.961 363.664 C 107.414 364.086,108.193 364.534,108.692 364.659 C 109.191 364.784,109.600 365.047,109.600 365.243 C 109.600 365.440,109.960 365.600,110.400 365.600 C 110.840 365.600,111.200 365.766,111.200 365.968 C 111.200 366.171,111.740 366.455,112.400 366.600 C 113.060 366.745,113.600 367.029,113.600 367.232 C 113.600 367.434,113.960 367.600,114.400 367.600 C 114.840 367.600,115.200 367.777,115.200 367.992 C 115.200 368.208,115.650 368.498,116.200 368.636 C 116.750 368.774,117.200 369.047,117.200 369.243 C 117.200 369.440,117.549 369.600,117.976 369.600 C 118.403 369.600,118.855 369.766,118.981 369.969 C 119.106 370.172,119.747 370.457,120.405 370.601 C 121.062 370.745,121.600 371.029,121.600 371.232 C 121.600 371.434,121.960 371.600,122.400 371.600 C 122.840 371.600,123.200 371.764,123.200 371.965 C 123.200 372.166,123.920 372.451,124.800 372.600 C 125.680 372.749,126.400 373.034,126.400 373.235 C 126.400 373.436,126.670 373.600,127.000 373.600 C 127.330 373.600,127.600 373.769,127.600 373.975 C 127.600 374.182,128.410 374.472,129.400 374.621 C 130.390 374.769,131.200 375.050,131.200 375.245 C 131.200 375.440,131.650 375.600,132.200 375.600 C 132.750 375.600,133.200 375.778,133.200 375.995 C 133.200 376.213,133.920 376.506,134.800 376.646 C 135.680 376.787,136.400 377.059,136.400 377.251 C 136.400 377.443,136.850 377.600,137.400 377.600 C 137.950 377.600,138.400 377.757,138.400 377.949 C 138.400 378.141,139.128 378.414,140.017 378.556 C 140.907 378.699,141.942 378.971,142.317 379.161 C 144.051 380.039,145.153 380.374,147.100 380.615 C 148.255 380.758,149.200 381.038,149.200 381.238 C 149.200 381.437,149.650 381.600,150.200 381.600 C 150.750 381.600,151.200 381.765,151.200 381.966 C 151.200 382.167,152.550 382.458,154.200 382.613 C 155.850 382.767,157.200 383.053,157.200 383.247 C 157.200 383.441,157.740 383.600,158.400 383.600 C 159.060 383.600,159.600 383.768,159.600 383.973 C 159.600 384.177,161.044 384.471,162.809 384.625 C 164.574 384.779,166.114 385.061,166.232 385.252 C 166.351 385.444,167.337 385.600,168.424 385.600 C 169.511 385.600,170.400 385.758,170.400 385.952 C 170.400 386.146,172.335 386.434,174.700 386.593 C 177.065 386.752,179.180 387.023,179.400 387.194 C 180.846 388.322,218.797 388.336,220.200 387.210 C 220.420 387.033,222.445 386.759,224.700 386.601 C 226.955 386.443,228.800 386.153,228.800 385.957 C 228.800 385.761,229.689 385.600,230.776 385.600 C 231.863 385.600,232.847 385.447,232.963 385.260 C 233.078 385.074,234.652 384.807,236.459 384.667 C 238.267 384.528,239.929 384.231,240.153 384.007 C 240.377 383.783,240.974 383.600,241.480 383.600 C 241.986 383.600,242.400 383.441,242.400 383.247 C 242.400 383.053,243.750 382.767,245.400 382.613 C 247.050 382.458,248.400 382.167,248.400 381.966 C 248.400 381.765,248.850 381.600,249.400 381.600 C 249.950 381.600,250.400 381.445,250.400 381.255 C 250.400 381.066,251.525 380.698,252.900 380.439 C 257.185 379.632,257.600 379.519,257.600 379.159 C 257.600 378.967,258.320 378.694,259.200 378.554 C 260.080 378.413,260.800 378.141,260.800 377.949 C 260.800 377.757,261.229 377.600,261.754 377.600 C 262.279 377.600,263.224 377.331,263.854 377.002 C 264.484 376.674,265.304 376.404,265.676 376.402 C 266.048 376.401,266.464 376.220,266.600 376.000 C 266.736 375.780,267.197 375.600,267.624 375.600 C 268.051 375.600,268.400 375.443,268.400 375.251 C 268.400 375.059,269.120 374.787,270.000 374.646 C 270.880 374.506,271.600 374.213,271.600 373.995 C 271.600 373.778,271.849 373.600,272.154 373.600 C 272.459 373.600,273.224 373.331,273.854 373.002 C 274.484 372.674,275.315 372.404,275.700 372.402 C 276.085 372.401,276.400 372.220,276.400 372.000 C 276.400 371.780,276.670 371.600,277.000 371.600 C 277.330 371.600,277.600 371.428,277.600 371.218 C 277.600 371.008,278.232 370.718,279.004 370.573 C 279.777 370.428,280.507 370.150,280.628 369.955 C 280.749 369.760,281.197 369.600,281.624 369.600 C 282.051 369.600,282.404 369.465,282.408 369.300 C 282.413 369.135,283.763 368.371,285.408 367.601 C 287.054 366.832,288.400 366.067,288.400 365.901 C 288.400 365.736,288.670 365.600,289.000 365.600 C 289.330 365.600,289.600 365.434,289.600 365.232 C 289.600 365.029,290.140 364.745,290.800 364.600 C 291.459 364.455,292.224 364.015,292.500 363.622 C 292.775 363.229,293.585 362.779,294.300 362.622 C 295.015 362.465,295.600 362.171,295.600 361.968 C 295.600 361.766,295.870 361.600,296.200 361.600 C 296.530 361.600,296.800 361.423,296.800 361.208 C 296.800 360.992,297.250 360.702,297.800 360.564 C 298.350 360.426,298.800 360.153,298.800 359.957 C 298.800 359.760,298.993 359.600,299.229 359.600 C 299.464 359.600,299.908 359.375,300.215 359.100 C 301.538 357.913,301.991 357.600,302.383 357.600 C 302.612 357.600,302.800 357.420,302.800 357.200 C 302.800 356.980,303.135 356.800,303.544 356.800 C 303.953 356.800,304.618 356.361,305.021 355.824 C 305.424 355.287,306.169 354.744,306.677 354.616 C 307.185 354.489,307.600 354.208,307.600 353.992 C 307.600 353.777,307.870 353.600,308.200 353.600 C 308.530 353.600,308.800 353.432,308.800 353.227 C 308.800 353.022,309.190 352.730,309.666 352.579 C 310.142 352.428,310.961 351.876,311.484 351.352 C 312.008 350.828,312.581 350.400,312.757 350.400 C 312.933 350.400,313.726 349.770,314.519 349.000 C 315.312 348.230,316.149 347.600,316.380 347.600 C 316.611 347.600,316.800 347.432,316.800 347.227 C 316.800 347.022,317.151 346.743,317.580 346.606 C 318.008 346.470,318.467 346.017,318.600 345.600 C 318.733 345.183,319.232 344.717,319.710 344.565 C 320.188 344.413,321.342 343.504,322.275 342.545 C 323.207 341.585,324.143 340.800,324.353 340.800 C 324.841 340.800,339.600 326.070,339.600 325.584 C 339.600 325.384,340.365 324.446,341.300 323.499 C 342.235 322.552,343.360 321.262,343.800 320.631 C 344.240 320.001,345.005 319.118,345.500 318.670 C 345.995 318.222,346.400 317.683,346.400 317.471 C 346.400 317.260,346.940 316.571,347.600 315.940 C 348.260 315.309,348.800 314.567,348.800 314.291 C 348.800 314.016,349.250 313.452,349.800 313.039 C 350.350 312.626,350.800 311.972,350.800 311.587 C 350.800 311.201,351.073 310.781,351.406 310.653 C 351.739 310.525,352.185 309.966,352.396 309.410 C 352.607 308.855,352.924 308.400,353.099 308.400 C 353.275 308.400,353.757 307.770,354.172 307.000 C 354.587 306.230,355.078 305.600,355.263 305.600 C 355.448 305.600,355.600 305.330,355.600 305.000 C 355.600 304.670,355.780 304.400,356.000 304.400 C 356.220 304.400,356.400 304.158,356.400 303.861 C 356.400 303.565,356.783 302.890,357.251 302.361 C 357.719 301.833,358.338 300.846,358.628 300.168 C 358.917 299.491,359.423 298.713,359.751 298.441 C 360.080 298.168,360.464 297.417,360.606 296.772 C 360.748 296.128,361.029 295.600,361.232 295.600 C 361.434 295.600,361.600 295.330,361.600 295.000 C 361.600 294.670,361.777 294.400,361.992 294.400 C 362.208 294.400,362.498 293.950,362.636 293.400 C 362.774 292.850,363.047 292.400,363.243 292.400 C 363.440 292.400,363.600 292.040,363.600 291.600 C 363.600 291.160,363.760 290.800,363.957 290.800 C 364.153 290.800,364.426 290.350,364.564 289.800 C 364.702 289.250,364.992 288.800,365.208 288.800 C 365.423 288.800,365.600 288.530,365.600 288.200 C 365.600 287.870,365.760 287.600,365.955 287.600 C 366.151 287.600,366.429 286.970,366.574 286.200 C 366.718 285.430,367.008 284.800,367.218 284.800 C 367.428 284.800,367.600 284.530,367.600 284.200 C 367.600 283.870,367.778 283.600,367.995 283.600 C 368.213 283.600,368.506 282.880,368.646 282.000 C 368.787 281.120,369.059 280.400,369.251 280.400 C 369.443 280.400,369.600 280.117,369.600 279.771 C 369.600 279.426,369.870 278.873,370.200 278.543 C 370.530 278.213,370.800 277.596,370.800 277.171 C 370.800 276.747,370.980 276.400,371.200 276.400 C 371.420 276.400,371.600 276.040,371.600 275.600 C 371.600 275.160,371.764 274.800,371.965 274.800 C 372.166 274.800,372.451 274.080,372.600 273.200 C 372.749 272.320,373.034 271.600,373.235 271.600 C 373.436 271.600,373.600 271.351,373.600 271.046 C 373.600 270.741,373.869 269.976,374.198 269.346 C 374.526 268.716,374.796 267.795,374.798 267.300 C 374.799 266.805,374.980 266.400,375.200 266.400 C 375.420 266.400,375.600 266.040,375.600 265.600 C 375.600 265.160,375.757 264.800,375.948 264.800 C 376.140 264.800,376.416 263.900,376.562 262.800 C 376.708 261.700,377.001 260.800,377.214 260.800 C 377.426 260.800,377.600 260.350,377.600 259.800 C 377.600 259.250,377.767 258.800,377.971 258.800 C 378.175 258.800,378.466 257.808,378.618 256.595 C 378.770 255.382,379.052 254.291,379.247 254.171 C 379.441 254.051,379.600 253.524,379.600 253.000 C 379.600 252.476,379.775 251.939,379.988 251.807 C 380.202 251.675,380.495 250.675,380.640 249.584 C 380.785 248.493,381.060 247.600,381.252 247.600 C 381.443 247.600,381.600 246.891,381.600 246.024 C 381.600 245.157,381.766 244.345,381.969 244.219 C 382.171 244.094,382.462 242.823,382.615 241.396 C 382.768 239.968,383.052 238.800,383.247 238.800 C 383.441 238.800,383.600 238.091,383.600 237.224 C 383.600 236.357,383.760 235.548,383.956 235.427 C 384.152 235.306,384.442 233.226,384.600 230.804 C 384.758 228.382,385.048 226.400,385.244 226.400 C 385.440 226.400,385.600 225.446,385.600 224.280 C 385.600 223.114,385.825 221.935,386.100 221.660 C 386.487 221.273,386.600 216.577,386.600 200.913 C 386.600 185.072,386.491 180.630,386.100 180.500 C 385.775 180.392,385.600 179.504,385.600 177.967 C 385.600 176.665,385.440 175.600,385.244 175.600 C 385.048 175.600,384.758 173.618,384.600 171.196 C 384.442 168.774,384.152 166.694,383.956 166.573 C 383.760 166.452,383.600 165.643,383.600 164.776 C 383.600 163.909,383.441 163.200,383.247 163.200 C 383.052 163.200,382.768 162.032,382.615 160.604 C 382.462 159.177,382.171 157.906,381.969 157.781 C 381.766 157.655,381.600 156.843,381.600 155.976 C 381.600 155.109,381.443 154.400,381.252 154.400 C 381.060 154.400,380.785 153.507,380.640 152.416 C 380.495 151.325,380.202 150.325,379.988 150.193 C 379.775 150.061,379.600 149.423,379.600 148.776 C 379.600 148.129,379.441 147.600,379.246 147.600 C 379.051 147.600,378.768 146.610,378.617 145.400 C 378.466 144.190,378.175 143.200,377.971 143.200 C 377.767 143.200,377.600 142.750,377.600 142.200 C 377.600 141.650,377.437 141.200,377.238 141.200 C 377.038 141.200,376.751 140.300,376.600 139.200 C 376.449 138.100,376.162 137.200,375.962 137.200 C 375.763 137.200,375.600 136.851,375.600 136.424 C 375.600 135.997,375.420 135.536,375.200 135.400 C 374.980 135.264,374.799 134.848,374.798 134.476 C 374.796 134.104,374.526 133.284,374.198 132.654 C 373.869 132.024,373.600 131.259,373.600 130.954 C 373.600 130.649,373.443 130.400,373.251 130.400 C 373.059 130.400,372.787 129.680,372.646 128.800 C 372.506 127.920,372.213 127.200,371.995 127.200 C 371.778 127.200,371.600 126.840,371.600 126.400 C 371.600 125.960,371.443 125.600,371.250 125.600 C 371.058 125.600,370.789 125.045,370.653 124.366 C 370.518 123.688,370.067 122.653,369.653 122.066 C 369.239 121.480,368.773 120.415,368.618 119.700 C 368.463 118.985,368.171 118.400,367.968 118.400 C 367.766 118.400,367.600 118.130,367.600 117.800 C 367.600 117.470,367.428 117.200,367.218 117.200 C 367.008 117.200,366.718 116.570,366.574 115.800 C 366.429 115.030,366.151 114.400,365.955 114.400 C 365.760 114.400,365.600 114.130,365.600 113.800 C 365.600 113.470,365.440 113.200,365.243 113.200 C 365.047 113.200,364.774 112.750,364.636 112.200 C 364.498 111.650,364.208 111.200,363.992 111.200 C 363.777 111.200,363.600 110.840,363.600 110.400 C 363.600 109.960,363.440 109.600,363.243 109.600 C 363.047 109.600,362.765 109.116,362.617 108.524 C 362.468 107.932,362.011 107.156,361.600 106.800 C 361.189 106.444,360.734 105.676,360.588 105.093 C 360.441 104.510,360.078 103.831,359.781 103.584 C 359.483 103.337,358.855 102.340,358.384 101.368 C 357.914 100.395,357.384 99.600,357.208 99.600 C 357.031 99.600,356.774 99.150,356.636 98.600 C 356.498 98.050,356.208 97.600,355.992 97.600 C 355.777 97.600,355.600 97.330,355.600 97.000 C 355.600 96.670,355.432 96.400,355.227 96.400 C 355.022 96.400,354.753 96.085,354.629 95.700 C 354.506 95.315,353.954 94.477,353.402 93.838 C 352.851 93.199,352.400 92.446,352.400 92.165 C 352.400 91.884,352.040 91.540,351.600 91.400 C 351.160 91.260,350.800 90.807,350.800 90.393 C 350.800 89.979,350.558 89.496,350.263 89.320 C 349.968 89.144,349.387 88.460,348.973 87.800 C 348.559 87.140,347.901 86.309,347.510 85.953 C 347.120 85.597,346.800 85.115,346.800 84.882 C 346.800 84.649,346.394 84.130,345.898 83.729 C 345.402 83.328,344.651 82.460,344.229 81.800 C 343.807 81.140,342.593 79.746,341.531 78.702 C 340.469 77.658,339.600 76.639,339.600 76.438 C 339.600 75.973,324.894 61.200,324.431 61.200 C 324.242 61.200,323.182 60.300,322.076 59.200 C 320.971 58.100,319.793 57.200,319.460 57.200 C 319.127 57.200,318.740 56.840,318.600 56.400 C 318.460 55.960,318.217 55.600,318.060 55.600 C 317.737 55.600,316.086 54.343,314.251 52.700 C 313.575 52.095,312.890 51.600,312.729 51.600 C 312.568 51.600,311.986 51.150,311.436 50.600 C 310.886 50.050,310.261 49.600,310.047 49.600 C 309.832 49.600,309.419 49.375,309.129 49.100 C 308.067 48.096,305.643 46.400,305.269 46.400 C 305.058 46.400,304.782 46.130,304.655 45.800 C 304.529 45.470,304.079 45.200,303.655 45.200 C 303.232 45.200,302.781 44.927,302.653 44.594 C 302.525 44.261,302.011 43.811,301.510 43.595 C 300.413 43.121,299.228 42.378,298.488 41.700 C 298.188 41.425,297.686 41.200,297.371 41.200 C 297.057 41.200,296.800 41.020,296.800 40.800 C 296.800 40.580,296.530 40.400,296.200 40.400 C 295.870 40.400,295.600 40.240,295.600 40.043 C 295.600 39.847,295.191 39.584,294.692 39.459 C 294.193 39.334,293.413 38.885,292.959 38.462 C 292.505 38.039,291.563 37.568,290.867 37.415 C 290.170 37.262,289.600 36.971,289.600 36.768 C 289.600 36.566,289.330 36.400,289.000 36.400 C 288.670 36.400,288.400 36.223,288.400 36.008 C 288.400 35.792,287.950 35.502,287.400 35.364 C 286.850 35.226,286.400 34.953,286.400 34.757 C 286.400 34.560,286.040 34.400,285.600 34.400 C 285.160 34.400,284.800 34.234,284.800 34.032 C 284.800 33.829,284.260 33.545,283.600 33.400 C 282.940 33.255,282.400 32.971,282.400 32.768 C 282.400 32.566,282.040 32.400,281.600 32.400 C 281.160 32.400,280.800 32.236,280.800 32.035 C 280.800 31.834,280.080 31.549,279.200 31.400 C 278.320 31.251,277.600 30.966,277.600 30.765 C 277.600 30.564,277.330 30.400,277.000 30.400 C 276.670 30.400,276.400 30.220,276.400 30.000 C 276.400 29.780,276.085 29.596,275.700 29.591 C 275.315 29.586,273.920 29.050,272.600 28.400 C 271.280 27.750,269.885 27.214,269.500 27.209 C 269.115 27.204,268.800 27.020,268.800 26.800 C 268.800 26.580,268.350 26.400,267.800 26.400 C 267.250 26.400,266.800 26.243,266.800 26.051 C 266.800 25.859,266.080 25.587,265.200 25.446 C 264.320 25.306,263.600 25.033,263.600 24.841 C 263.600 24.648,263.105 24.388,262.500 24.263 C 259.906 23.727,257.600 22.996,257.600 22.709 C 257.600 22.539,257.150 22.400,256.600 22.400 C 256.050 22.400,255.600 22.243,255.600 22.052 C 255.600 21.860,254.520 21.581,253.200 21.432 C 251.880 21.282,250.800 20.989,250.800 20.780 C 250.800 20.571,250.260 20.400,249.600 20.400 C 248.940 20.400,248.400 20.233,248.400 20.029 C 248.400 19.825,247.365 19.546,246.100 19.409 C 244.835 19.273,243.487 18.990,243.105 18.780 C 242.723 18.571,241.969 18.400,241.429 18.400 C 240.889 18.400,240.342 18.230,240.214 18.023 C 240.086 17.816,238.722 17.522,237.182 17.371 C 235.642 17.219,234.286 16.939,234.168 16.747 C 234.049 16.556,232.984 16.400,231.800 16.400 C 230.616 16.400,229.550 16.243,229.432 16.052 C 229.314 15.861,227.368 15.574,225.109 15.415 C 222.849 15.256,220.818 14.976,220.596 14.794 C 219.680 14.041,188.564 13.296,187.000 13.989 M216.877 36.013 C 234.919 37.912,251.483 42.295,267.263 49.346 C 270.576 50.826,270.781 48.168,265.616 70.700 C 264.317 76.365,262.068 86.400,260.618 93.000 C 259.168 99.600,257.636 106.440,257.214 108.200 C 256.792 109.960,255.964 113.560,255.376 116.200 C 254.053 122.133,252.309 129.879,249.659 141.600 C 245.745 158.905,242.380 173.866,240.569 182.000 C 239.566 186.510,237.691 194.790,236.404 200.400 C 235.116 206.010,233.240 214.290,232.234 218.800 C 231.229 223.310,229.227 232.220,227.786 238.600 C 226.345 244.980,225.016 250.920,224.834 251.800 C 224.549 253.171,223.144 259.384,221.034 268.600 C 220.454 271.134,220.188 272.319,217.615 283.800 C 216.727 287.760,215.737 292.080,215.413 293.400 C 215.090 294.720,213.731 300.750,212.393 306.800 C 211.054 312.850,209.405 320.230,208.728 323.200 C 208.051 326.170,207.244 329.767,206.935 331.193 C 206.324 334.012,205.805 334.909,205.462 333.740 C 205.342 333.333,203.332 325.260,200.995 315.800 C 198.658 306.340,192.990 283.480,188.400 265.000 C 183.809 246.520,177.330 220.420,174.001 207.000 C 170.672 193.580,164.641 169.280,160.599 153.000 C 141.731 77.002,138.886 65.264,138.675 62.539 C 138.529 60.653,138.119 59.017,137.473 57.739 C 136.934 56.673,136.195 54.632,135.831 53.205 C 135.466 51.778,134.912 50.220,134.599 49.742 C 133.849 48.597,133.988 48.502,139.600 46.298 C 151.783 41.513,166.996 37.689,179.000 36.392 C 181.200 36.154,184.260 35.811,185.800 35.630 C 191.646 34.943,208.711 35.153,216.877 36.013 M104.800 65.618 C 104.800 66.033,102.868 73.911,92.546 115.600 C 89.577 127.590,85.260 145.050,82.952 154.400 C 80.644 163.750,75.717 183.640,72.002 198.600 C 68.288 213.560,64.147 230.300,62.802 235.800 C 57.103 259.092,52.735 276.223,52.412 276.547 C 51.689 277.272,45.105 262.112,42.070 252.736 C 39.927 246.114,37.502 236.680,36.800 232.232 C 36.560 230.709,36.295 229.354,36.213 229.221 C 34.194 225.954,33.437 191.744,35.119 179.800 C 41.571 133.994,64.270 95.131,100.393 68.044 C 104.216 65.177,104.800 64.855,104.800 65.618 M300.734 69.294 C 333.598 94.665,355.447 130.458,362.941 171.200 C 363.868 176.238,364.153 178.424,365.198 188.468 C 367.667 212.218,361.216 249.081,351.110 268.971 C 350.056 271.044,350.301 271.688,346.025 255.600 C 341.835 239.835,340.956 236.530,337.567 223.800 C 336.220 218.740,334.879 213.700,334.587 212.600 C 334.295 211.500,331.345 200.430,328.031 188.000 C 324.718 175.570,321.537 163.600,320.964 161.400 C 320.391 159.200,319.687 156.590,319.400 155.600 C 319.114 154.610,318.383 151.910,317.777 149.600 C 317.172 147.290,316.069 143.150,315.328 140.400 C 313.472 133.520,312.354 129.337,310.247 121.400 C 305.843 104.810,301.818 89.709,298.828 78.560 C 297.053 71.938,295.600 66.403,295.600 66.260 C 295.600 65.553,296.829 66.279,300.734 69.294 M129.962 117.208 C 134.135 134.034,139.893 157.233,142.759 168.762 C 145.625 180.291,147.859 189.905,147.723 190.125 C 147.559 190.390,141.611 190.438,130.237 190.265 C 120.757 190.121,109.400 190.000,105.000 189.996 C 100.600 189.991,96.779 189.847,96.509 189.676 C 96.141 189.442,97.516 183.339,102.030 165.182 C 105.337 151.882,109.482 135.150,111.243 128.000 C 122.948 80.466,121.568 85.808,122.028 86.268 C 122.220 86.460,125.790 100.383,129.962 117.208 M284.359 106.200 C 285.699 111.260,287.147 116.660,287.576 118.200 C 288.006 119.740,289.356 124.780,290.577 129.400 C 293.405 140.107,301.231 169.496,304.367 181.191 C 305.694 186.136,306.648 190.300,306.489 190.445 C 305.880 190.999,260.400 191.131,260.400 190.579 C 260.400 190.115,261.666 184.190,263.001 178.400 C 264.149 173.425,268.098 155.962,268.790 152.800 C 269.199 150.930,271.092 142.560,272.996 134.200 C 274.899 125.840,276.601 118.280,276.776 117.400 C 277.625 113.147,281.236 97.465,281.444 97.129 C 281.808 96.540,281.775 96.437,284.359 106.200 M146.296 210.653 L 153.192 210.886 153.579 212.343 C 153.791 213.144,156.233 222.980,159.004 234.200 C 163.853 253.827,171.604 285.059,185.289 340.114 C 189.384 356.584,191.592 366.168,191.349 366.411 C 190.837 366.923,179.291 365.817,172.000 364.557 C 132.887 357.800,96.721 336.939,71.868 306.800 C 67.655 301.690,67.571 304.213,72.625 283.944 C 74.948 274.625,78.466 260.430,80.441 252.400 C 82.417 244.370,85.590 231.537,87.493 223.882 L 90.953 209.963 115.177 210.192 C 128.499 210.318,142.503 210.525,146.296 210.653 M312.391 211.685 C 312.605 212.188,313.349 214.760,314.045 217.400 C 317.185 229.311,318.866 235.634,320.000 239.800 C 320.479 241.560,321.218 244.350,321.643 246.000 C 322.432 249.062,323.635 253.575,330.970 280.983 C 334.318 293.496,335.055 296.726,334.709 297.383 C 333.981 298.761,328.377 305.948,325.043 309.775 C 298.949 339.739,262.320 359.763,223.667 365.194 C 220.084 365.698,219.902 365.602,220.841 363.702 C 221.589 362.191,222.487 358.471,226.612 339.800 C 227.827 334.300,228.994 329.080,229.205 328.200 C 229.572 326.669,230.253 323.670,232.021 315.800 C 232.466 313.820,233.165 310.760,233.574 309.000 C 233.983 307.240,234.619 304.450,234.988 302.800 C 235.356 301.150,235.911 298.720,236.222 297.400 C 236.710 295.327,240.075 280.367,243.465 265.200 C 244.031 262.670,244.722 259.610,245.001 258.400 C 245.280 257.190,245.963 254.130,246.519 251.600 C 247.633 246.526,250.551 233.609,253.548 220.487 C 254.618 215.805,255.622 211.845,255.779 211.687 C 256.082 211.384,271.860 211.076,296.902 210.885 L 312.003 210.770 312.391 211.685 " stroke="none" fill="#050505" fill-rule="evenodd"></path><path id="path1" d="M185.800 35.630 C 184.260 35.811,181.200 36.154,179.000 36.392 C 166.996 37.689,151.783 41.513,139.600 46.298 C 133.988 48.502,133.849 48.597,134.599 49.742 C 134.912 50.220,135.466 51.778,135.831 53.205 C 136.195 54.632,136.934 56.673,137.473 57.739 C 138.119 59.017,138.529 60.653,138.675 62.539 C 138.886 65.264,141.731 77.002,160.599 153.000 C 164.641 169.280,170.672 193.580,174.001 207.000 C 177.330 220.420,183.809 246.520,188.400 265.000 C 192.990 283.480,198.658 306.340,200.995 315.800 C 203.332 325.260,205.342 333.333,205.462 333.740 C 205.805 334.909,206.324 334.012,206.935 331.193 C 207.244 329.767,208.051 326.170,208.728 323.200 C 209.405 320.230,211.054 312.850,212.393 306.800 C 213.731 300.750,215.090 294.720,215.413 293.400 C 215.737 292.080,216.727 287.760,217.615 283.800 C 220.188 272.319,220.454 271.134,221.034 268.600 C 223.144 259.384,224.549 253.171,224.834 251.800 C 225.016 250.920,226.345 244.980,227.786 238.600 C 229.227 232.220,231.229 223.310,232.234 218.800 C 233.240 214.290,235.116 206.010,236.404 200.400 C 237.691 194.790,239.566 186.510,240.569 182.000 C 242.380 173.866,245.745 158.905,249.659 141.600 C 252.309 129.879,254.053 122.133,255.376 116.200 C 255.964 113.560,256.792 109.960,257.214 108.200 C 257.636 106.440,259.168 99.600,260.618 93.000 C 262.068 86.400,264.317 76.365,265.616 70.700 C 270.781 48.168,270.576 50.826,267.263 49.346 C 242.922 38.470,209.505 32.844,185.800 35.630 M100.393 68.044 C 64.270 95.131,41.571 133.994,35.119 179.800 C 33.437 191.744,34.194 225.954,36.213 229.221 C 36.295 229.354,36.560 230.709,36.800 232.232 C 37.502 236.680,39.927 246.114,42.070 252.736 C 45.105 262.112,51.689 277.272,52.412 276.547 C 52.735 276.223,57.103 259.092,62.802 235.800 C 64.147 230.300,68.288 213.560,72.002 198.600 C 75.717 183.640,80.644 163.750,82.952 154.400 C 85.260 145.050,89.577 127.590,92.546 115.600 C 105.996 61.279,105.067 65.200,104.493 65.200 C 104.324 65.200,102.479 66.480,100.393 68.044 M295.600 66.260 C 295.600 66.403,297.053 71.938,298.828 78.560 C 301.818 89.709,305.843 104.810,310.247 121.400 C 312.354 129.337,313.472 133.520,315.328 140.400 C 316.069 143.150,317.172 147.290,317.777 149.600 C 318.383 151.910,319.114 154.610,319.400 155.600 C 319.687 156.590,320.391 159.200,320.964 161.400 C 321.537 163.600,324.718 175.570,328.031 188.000 C 331.345 200.430,334.295 211.500,334.587 212.600 C 334.879 213.700,336.220 218.740,337.567 223.800 C 340.956 236.530,341.835 239.835,346.025 255.600 C 350.301 271.688,350.056 271.044,351.110 268.971 C 361.216 249.081,367.667 212.218,365.198 188.468 C 364.153 178.424,363.868 176.238,362.941 171.200 C 355.447 130.458,333.598 94.665,300.734 69.294 C 296.829 66.279,295.600 65.553,295.600 66.260 M121.462 86.660 C 121.260 87.348,119.460 94.630,111.243 128.000 C 109.482 135.150,105.337 151.882,102.030 165.182 C 97.516 183.339,96.141 189.442,96.509 189.676 C 96.779 189.847,100.600 189.991,105.000 189.996 C 109.400 190.000,120.757 190.121,130.237 190.265 C 141.611 190.438,147.559 190.390,147.723 190.125 C 147.859 189.905,145.625 180.291,142.759 168.762 C 139.893 157.233,134.135 134.034,129.962 117.208 C 122.601 87.520,121.924 85.087,121.462 86.660 M281.444 97.129 C 281.236 97.465,277.625 113.147,276.776 117.400 C 276.601 118.280,274.899 125.840,272.996 134.200 C 271.092 142.560,269.199 150.930,268.790 152.800 C 268.098 155.962,264.149 173.425,263.001 178.400 C 261.666 184.190,260.400 190.115,260.400 190.579 C 260.400 191.131,305.880 190.999,306.489 190.445 C 306.648 190.300,305.694 186.136,304.367 181.191 C 301.231 169.496,293.405 140.107,290.577 129.400 C 289.356 124.780,288.006 119.740,287.576 118.200 C 287.147 116.660,285.699 111.260,284.359 106.200 C 281.775 96.437,281.808 96.540,281.444 97.129 M87.493 223.882 C 85.590 231.537,82.417 244.370,80.441 252.400 C 78.466 260.430,74.948 274.625,72.625 283.944 C 67.571 304.213,67.655 301.690,71.868 306.800 C 96.721 336.939,132.887 357.800,172.000 364.557 C 179.291 365.817,190.837 366.923,191.349 366.411 C 191.592 366.168,189.384 356.584,185.289 340.114 C 171.604 285.059,163.853 253.827,159.004 234.200 C 156.233 222.980,153.791 213.144,153.579 212.343 L 153.192 210.886 146.296 210.653 C 142.503 210.525,128.499 210.318,115.177 210.192 L 90.953 209.963 87.493 223.882 M268.933 211.200 C 261.856 211.310,255.937 211.529,255.779 211.687 C 255.622 211.845,254.618 215.805,253.548 220.487 C 250.551 233.609,247.633 246.526,246.519 251.600 C 245.963 254.130,245.280 257.190,245.001 258.400 C 244.722 259.610,244.031 262.670,243.465 265.200 C 240.075 280.367,236.710 295.327,236.222 297.400 C 235.911 298.720,235.356 301.150,234.988 302.800 C 234.619 304.450,233.983 307.240,233.574 309.000 C 233.165 310.760,232.466 313.820,232.021 315.800 C 230.253 323.670,229.572 326.669,229.205 328.200 C 228.994 329.080,227.827 334.300,226.612 339.800 C 222.487 358.471,221.589 362.191,220.841 363.702 C 219.902 365.602,220.084 365.698,223.667 365.194 C 262.320 359.763,298.949 339.739,325.043 309.775 C 328.377 305.948,333.981 298.761,334.709 297.383 C 335.055 296.726,334.318 293.496,330.970 280.983 C 323.635 253.575,322.432 249.062,321.643 246.000 C 321.218 244.350,320.479 241.560,320.000 239.800 C 318.866 235.634,317.185 229.311,314.045 217.400 C 313.349 214.760,312.605 212.188,312.391 211.685 L 312.003 210.770 296.902 210.885 C 288.596 210.948,276.010 211.090,268.933 211.200 " stroke="none" fill="#fbfbfb" fill-rule="evenodd"></path></g></svg>